<?xml version="1.0" standalone="no"?>
<!DOCTYPE svg PUBLIC "-//W3C//DTD SVG 20010904//EN"
 "http://www.w3.org/TR/2001/REC-SVG-20010904/DTD/svg10.dtd">
<svg version="1.0" xmlns="http://www.w3.org/2000/svg"
 width="512.000000pt" height="512.000000pt" viewBox="0 0 512.000000 512.000000"
 preserveAspectRatio="xMidYMid meet">
<metadata>
Created by potrace 1.16, written by Peter Selinger 2001-2019
</metadata>
<g transform="translate(0.000000,512.000000) scale(0.100000,-0.100000)"
fill="#000000" stroke="none">
<path d="M759 3976 c-93 -63 -90 -216 4 -275 l34 -21 1764 0 c1729 0 1765 1
1793 20 98 64 99 219 3 279 l-34 21 -1764 0 -1764 0 -36 -24z"/>
<path d="M759 2696 c-93 -63 -90 -216 4 -275 l34 -21 1764 0 c1729 0 1765 1
1793 20 98 64 99 219 3 279 l-34 21 -1764 0 -1764 0 -36 -24z"/>
<path d="M759 1416 c-93 -63 -90 -216 4 -275 l34 -21 1764 0 c1729 0 1765 1
1793 20 98 64 99 219 3 279 l-34 21 -1764 0 -1764 0 -36 -24z"/>
</g>
</svg>
